<svg width="35" height="36" viewBox="0 0 35 36" fill="none" xmlns="http://www.w3.org/2000/svg">
<path d="M5 0.5C2.24219 0.5 0 2.74219 0 5.5V30.5C0 33.2578 2.24219 35.5 5 35.5H30C32.7578 35.5 35 33.2578 35 30.5V5.5C35 2.74219 32.7578 0.5 30 0.5H5ZM17.0312 19.2266L5.01562 11.4688C5.15625 10.2188 6.21094 9.25 7.5 9.25H27.5C28.7891 9.25 29.8438 10.2188 29.9844 11.4688L17.9688 19.2266C17.8281 19.3203 17.6641 19.3672 17.5 19.3672C17.3359 19.3672 17.1719 19.3203 17.0312 19.2266ZM19.3281 21.3281L30 14.4375V24.25C30 25.6328 28.8828 26.75 27.5 26.75H7.5C6.11719 26.75 5 25.6328 5 24.25V14.4375L15.6719 21.3281C16.2188 21.6797 16.8516 21.8672 17.5 21.8672C18.1484 21.8672 18.7812 21.6797 19.3281 21.3281Z" fill="#BCBCBC"/>
</svg>
