<svg width="37" height="36" viewBox="0 0 37 36" fill="none" xmlns="http://www.w3.org/2000/svg">
<path d="M18.5078 9.01562C13.5391 9.01562 9.53125 13.0234 9.53125 17.9922C9.53125 22.9609 13.5391 26.9687 18.5078 26.9687C23.4766 26.9687 27.4844 22.9609 27.4844 17.9922C27.4844 13.0234 23.4766 9.01562 18.5078 9.01562ZM18.5078 23.8281C15.2969 23.8281 12.6719 21.2109 12.6719 17.9922C12.6719 14.7734 15.2891 12.1562 18.5078 12.1562C21.7266 12.1562 24.3438 14.7734 24.3438 17.9922C24.3438 21.2109 21.7188 23.8281 18.5078 23.8281ZM29.9453 8.64844C29.9453 9.8125 29.0078 10.7422 27.8516 10.7422C26.6875 10.7422 25.7578 9.80469 25.7578 8.64844C25.7578 7.49219 26.6953 6.55469 27.8516 6.55469C29.0078 6.55469 29.9453 7.49219 29.9453 8.64844ZM35.8906 10.7734C35.7578 7.96875 35.1172 5.48438 33.0625 3.4375C31.0156 1.39062 28.5313 0.75 25.7266 0.609375C22.8359 0.445312 14.1719 0.445312 11.2812 0.609375C8.48438 0.742188 6 1.38281 3.94531 3.42969C1.89063 5.47656 1.25781 7.96094 1.11719 10.7656C0.953125 13.6562 0.953125 22.3203 1.11719 25.2109C1.25 28.0156 1.89063 30.5 3.94531 32.5469C6 34.5938 8.47656 35.2344 11.2812 35.375C14.1719 35.5391 22.8359 35.5391 25.7266 35.375C28.5313 35.2422 31.0156 34.6016 33.0625 32.5469C35.1094 30.5 35.75 28.0156 35.8906 25.2109C36.0547 22.3203 36.0547 13.6641 35.8906 10.7734ZM32.1562 28.3125C31.5469 29.8438 30.3672 31.0234 28.8281 31.6406C26.5234 32.5547 21.0547 32.3438 18.5078 32.3438C15.9609 32.3438 10.4844 32.5469 8.1875 31.6406C6.65625 31.0312 5.47656 29.8516 4.85938 28.3125C3.94531 26.0078 4.15625 20.5391 4.15625 17.9922C4.15625 15.4453 3.95313 9.96875 4.85938 7.67188C5.46875 6.14062 6.64844 4.96094 8.1875 4.34375C10.4922 3.42969 15.9609 3.64062 18.5078 3.64062C21.0547 3.64062 26.5313 3.4375 28.8281 4.34375C30.3594 4.95312 31.5391 6.13281 32.1562 7.67188C33.0703 9.97656 32.8594 15.4453 32.8594 17.9922C32.8594 20.5391 33.0703 26.0156 32.1562 28.3125Z" fill="#CBCBCB"/>
</svg>
