<?xml version="1.0" encoding="UTF-8" standalone="no"?>
<!-- Created with Inkscape (http://www.inkscape.org/) -->

<svg
   width="429.55609"
   height="406.96393"
   viewBox="0 0 113.65338 107.67588"
   version="1.1"
   id="svg5"
   inkscape:version="1.2.2 (732a01da63, 2022-12-09)"
   sodipodi:docname="logo-skiordie.svg"
   xmlns:inkscape="http://www.inkscape.org/namespaces/inkscape"
   xmlns:sodipodi="http://sodipodi.sourceforge.net/DTD/sodipodi-0.dtd"
   xmlns="http://www.w3.org/2000/svg"
   xmlns:svg="http://www.w3.org/2000/svg">
  <sodipodi:namedview
     id="namedview7"
     pagecolor="#000000"
     bordercolor="#000000"
     borderopacity="0.25"
     inkscape:showpageshadow="2"
     inkscape:pageopacity="0"
     inkscape:pagecheckerboard="0"
     inkscape:deskcolor="#d1d1d1"
     inkscape:document-units="mm"
     showgrid="false"
     inkscape:zoom="1.305"
     inkscape:cx="110.72797"
     inkscape:cy="261.68582"
     inkscape:window-width="1920"
     inkscape:window-height="1001"
     inkscape:window-x="-9"
     inkscape:window-y="-9"
     inkscape:window-maximized="1"
     inkscape:current-layer="layer1">
    <inkscape:grid
       type="xygrid"
       id="grid275" />
  </sodipodi:namedview>
  <defs
     id="defs2">
    <rect
       x="55.160671"
       y="365.43945"
       width="383.34891"
       height="109.63184"
       id="rect808" />
  </defs>
  <g
     inkscape:label="Layer 1"
     inkscape:groupmode="layer"
     id="layer1"
     style="display:inline;fill:#000000"
     transform="translate(-9.3159871,-11.707066)">
    <g
       id="g610"
       transform="translate(0.39263883,3.1782293)"
       style="fill:#ffffff;fill-opacity:1">
      <path
         id="path376-1"
         style="fill:#ffffff;fill-opacity:1;stroke-width:0.308577"
         d="M 81.174135,9.9751273 A 28.085191,28.085191 0 0 0 69.39697,12.578145 31.825031,31.825031 0 0 1 82.157122,38.060481 31.825031,31.825031 0 0 1 69.374068,63.532569 28.085191,28.085191 0 0 0 81.174135,66.145833 28.085191,28.085191 0 0 0 109.25949,38.060481 28.085191,28.085191 0 0 0 81.174135,9.9751273 Z"
         inkscape:label="path376-1" />
      <path
         id="path598"
         style="fill:#ffffff;fill-opacity:1;stroke-width:0.308577"
         d="M 50.332252,94.095143 A 28.085191,28.085191 0 0 0 62.109417,91.492113 31.825031,31.825031 0 0 1 49.349265,66.009781 31.825031,31.825031 0 0 1 62.132319,40.537692 28.085191,28.085191 0 0 0 50.332252,37.924429 28.085191,28.085191 0 0 0 22.246899,66.009781 28.085191,28.085191 0 0 0 50.332252,94.095143 Z" />
      <path
         id="path602"
         style="fill:#ffffff;fill-opacity:1;stroke-width:0.308577"
         d="M 107.8132,67.456073 A 28.085191,28.085191 0 0 0 105.21018,55.678908 31.825031,31.825031 0 0 1 79.727844,68.43906 31.825031,31.825031 0 0 1 54.255756,55.656006 28.085191,28.085191 0 0 0 51.642492,67.456073 28.085191,28.085191 0 0 0 79.727844,95.541423 28.085191,28.085191 0 0 0 107.8132,67.456073 Z" />
      <path
         id="path604"
         style="fill:#ffffff;fill-opacity:1;stroke-width:0.308577"
         d="M 23.693189,36.61419 A 28.085191,28.085191 0 0 0 26.296213,48.391355 31.825031,31.825031 0 0 1 51.778544,35.631203 31.825031,31.825031 0 0 1 77.250633,48.414257 28.085191,28.085191 0 0 0 79.863896,36.61419 28.085191,28.085191 0 0 0 51.778544,8.5288373 28.085191,28.085191 0 0 0 23.693189,36.61419 Z" />
    </g>
    <g
       aria-label="SKIORDIE"
       transform="matrix(0.31219874,0,0,0.31219874,-9.6620464,-14.151389)"
       id="text806"
       style="font-size:58.7955px;font-family:Pirulen;-inkscape-font-specification:'Pirulen, Normal';white-space:pre;shape-inside:url(#rect808);shape-padding:5.80431;display:inline;fill:#ffffff">
      <path
         id="path200"
         d="m 78.035156,379.54883 c -4.572108,0.11206 -9.426988,0.74111 -13.175781,3.58789 -2.895901,2.23195 -4.320772,6.00414 -4.035156,9.60351 -0.03504,3.18095 -0.299184,6.62804 1.473594,9.44539 1.729406,2.95551 4.88208,4.76612 8.133097,5.57761 5.160736,1.37253 10.547477,0.85301 15.823386,0.96123 5.508584,0.0294 11.021671,-0.0803 16.527214,0.0764 0.57522,0.0503 1.15938,0.087 1.71458,0.25581 -0.006,1.8151 -0.009,3.63013 -0.002,5.44531 -2.4244,0.51053 -4.929809,0.22163 -7.389833,0.30679 -11.628501,0.0226 -23.25704,0.006 -34.885557,0.01 0,4.29883 0,8.59766 0,12.89648 13.487837,-0.0165 26.977026,0.0429 40.464,-0.0404 4.44287,-0.15632 9.16057,-0.91183 12.70558,-3.80438 2.6613,-2.20752 3.92847,-5.7657 3.70348,-9.16964 -0.0578,-2.92541 0.16152,-5.86982 -0.17883,-8.78105 -0.60783,-3.68468 -3.32939,-6.82795 -6.77321,-8.19381 -4.8934,-2.17492 -10.3658,-1.88224 -15.593676,-1.90131 -6.414157,-0.0233 -12.831757,0.067 -19.24364,-0.0613 -0.614093,-0.0918 -1.418828,-0.016 -1.898157,-0.34104 -0.01434,-0.88159 0.01156,-1.76301 0.0078,-2.64454 2.987749,-0.62178 6.062149,-0.22045 9.088672,-0.33984 10.669011,0 21.338021,0 32.007031,0 0,-4.29883 0,-8.59766 0,-12.89648 -12.82422,-0.003 -25.648438,-0.002 -38.472656,0.008 z"
         style="fill:#ffffff" />
      <path
         id="path202"
         d="m 119.36914,381.23633 c 0,15.49284 0,30.98568 0,46.47851 4.86654,0 9.73307,0 14.59961,0 0,-6.15429 0,-12.30859 0,-18.46289 2.7207,0 5.44141,0 8.16211,0 5.2723,6.15416 10.54327,12.30946 15.81641,18.46289 5.98307,0 11.96614,0 17.94921,0 -7.00934,-8.44707 -14.01819,-16.89455 -21.02734,-25.34179 7.26302,-7.61068 14.52602,-15.22138 21.78906,-22.83203 -6.23567,0 -12.47135,0 -18.70703,0 -5.11462,5.60537 -10.23057,11.20954 -15.3457,16.81445 -2.87891,0 -5.75781,0 -8.63672,0 0,-5.60482 0,-11.20964 0,-16.81445 -4.86654,0 -9.73307,0 -14.59961,0 0,0.5651 0,1.1302 0,1.69531 z"
         style="fill:#ffffff" />
      <path
         id="path204"
         d="m 169.87305,381.23633 c 0,15.49284 0,30.98568 0,46.47851 4.86718,0 9.73437,0 14.60156,0 0,-16.05794 0,-32.11588 0,-48.17382 -4.86719,0 -9.73438,0 -14.60156,0 0,0.5651 0,1.1302 0,1.69531 z"
         style="fill:#ffffff" />
      <path
         id="path206"
         d="m 202.62109,379.54883 c -4.57147,0.11229 -9.42558,0.74148 -13.17382,3.58789 -2.81929,2.17461 -4.25556,5.81812 -4.05088,9.33242 0.0164,8.00306 -0.0433,16.00818 0.0426,24.00994 0.22424,3.83976 2.70585,7.40569 6.20095,8.99865 4.65695,2.35469 10.02002,2.2522 15.10494,2.23514 7.59957,-0.0231 15.20157,0.0667 22.79953,-0.0615 4.37549,-0.19606 9.02624,-1.03797 12.43567,-3.99091 2.51317,-2.21736 3.67282,-5.6685 3.46529,-8.96752 -0.0169,-7.97439 0.0443,-15.95094 -0.0434,-23.92395 -0.22685,-3.87839 -2.76404,-7.46734 -6.30508,-9.04477 -4.70062,-2.32897 -10.08658,-2.19325 -15.19964,-2.18376 -7.09207,-0.004 -14.18412,0.002 -21.27618,0.008 z m 13.41993,12.88476 c 4.34154,0.0223 8.68734,-0.0456 13.02607,0.0758 0.58786,0.064 1.26881,0.0508 1.78057,0.29724 -0.0139,7.23288 0.013,14.4662 -0.0156,21.69922 -2.42621,0.49859 -4.92968,0.21908 -7.3902,0.30728 -7.01802,5.2e-4 -14.03793,0.038 -21.0548,-0.0316 -0.80224,-0.0402 -1.61658,-0.0699 -2.39094,-0.30298 0.0129,-7.2374 -0.0332,-14.49569 0.0273,-21.72461 2.75135,-0.5422 5.57745,-0.23232 8.3625,-0.31339 2.55169,0.002 5.10338,-0.005 7.65508,-0.007 z"
         style="fill:#ffffff" />
      <path
         id="path208"
         d="m 244.36719,381.23633 c 0,15.49284 0,30.98568 0,46.47851 4.86719,0 9.73437,0 14.60156,0 0,-6.15429 0,-12.30859 0,-18.46289 5.26237,0 10.52474,0 15.78711,0 3.23382,6.15425 6.46683,12.30892 9.70117,18.46289 5.33529,0 10.67057,0 16.00586,0 -3.45093,-6.57108 -6.90237,-13.14191 -10.35351,-19.71289 3.32959,-1.0478 6.44115,-3.32012 7.74609,-6.65039 1.15873,-2.91756 0.72282,-6.11457 0.80494,-9.17453 0.018,-2.62649 -0.62707,-5.36142 -2.42519,-7.35633 -2.66519,-3.24914 -6.91319,-4.6187 -10.96508,-5.02244 -4.33901,-0.44634 -8.70934,-0.18744 -13.06272,-0.25724 -9.28008,0 -18.56015,0 -27.84023,0 0,0.5651 0,1.1302 0,1.69531 z m 36.07617,11.20117 c 1.19535,0.0576 2.4523,-0.0228 3.59375,0.34961 0.0119,1.075 0.0268,2.15346 0.0215,3.23047 -2.34334,0.53856 -4.77811,0.24436 -7.16247,0.3333 -5.97578,0.0126 -11.95158,0.003 -17.92737,0.005 0,-1.30599 0,-2.61198 0,-3.91797 7.1582,0 14.31641,0 21.47461,0 z"
         style="fill:#ffffff" />
      <path
         id="path210"
         inkscape:label="path210"
         d="m 325.56445,379.54492 c -8.81966,-0.008 -17.63932,-0.002 -26.45898,-0.004 0,16.05794 0,32.11588 0,48.17382 13.77885,-0.0165 27.55907,0.043 41.33704,-0.0405 4.931,-0.16673 10.13709,-1.03791 14.10661,-4.18211 3.18073,-2.5527 4.80171,-6.72084 4.58684,-10.75117 0.0295,-6.5469 0.0439,-13.09521 -0.011,-19.64142 -0.19986,-4.16853 -2.44609,-8.25606 -6.09754,-10.36545 -4.29357,-2.64869 -9.49316,-3.16994 -14.43169,-3.17047 -4.34359,-0.0453 -8.68757,-0.0215 -13.03132,-0.0188 z m 13.0625,12.89258 c 1.95141,0.0947 4.12331,-0.0111 5.78321,1.18359 0.33227,1.13869 0.0562,2.36693 0.14486,3.54102 -0.0179,5.44313 0.0462,10.89342 -0.0433,16.33203 -0.7173,0.90726 -2.03597,0.95633 -3.09766,1.1543 -3.19116,0.34797 -6.40681,0.0796 -9.60898,0.16992 -6.03268,0 -12.06537,0 -18.09805,0 0,-7.46029 0,-14.92057 0,-22.38086 8.30664,0 16.61328,0 24.91992,0 z"
         style="fill:#ffffff" />
      <path
         id="path212"
         d="m 359.7832,381.23633 c 0,15.49284 0,30.98568 0,46.47851 4.86719,0 9.73438,0 14.60157,0 0,-16.05794 0,-32.11588 0,-48.17382 -4.86719,0 -9.73438,0 -14.60157,0 0,0.5651 0,1.1302 0,1.69531 z"
         style="fill:#ffffff" />
      <path
         id="path214"
         d="m 375.48047,381.23633 c 0,15.49284 0,30.98568 0,46.47851 16.44987,0 32.89974,0 49.34961,0 0,-4.29882 0,-8.59765 0,-12.89648 -11.58268,0 -23.16537,0 -34.74805,0 0,-1.97266 0,-3.94531 0,-5.91797 10.99479,0 21.98958,0 32.98438,0 0,-4.29883 0,-8.59766 0,-12.89648 -10.9948,0 -21.98959,0 -32.98438,0 0,-1.18881 0,-2.37761 0,-3.56641 11.58268,0 23.16537,0 34.74805,0 0,-4.29883 0,-8.59766 0,-12.89648 -16.44987,0 -32.89974,0 -49.34961,0 0,0.5651 0,1.1302 0,1.69531 z"
         style="fill:#ffffff" />
    </g>
  </g>
</svg>
