<svg width="100" height="100" viewBox="0 0 100 100" fill="none" xmlns="http://www.w3.org/2000/svg">
<g clip-path="url(#clip0_2_26)">
<path d="M49.7441 0.00188107C49.2063 0.0258835 48.6951 0.243019 48.3044 0.613454C43.979 5.15625 41.4367 11.1064 41.1439 17.3722C41.4335 23.6413 43.9761 29.5952 48.3044 34.1395L50.2113 36.0507L53.1035 38.9259L64.1628 49.9852L53.1035 61.0487L54.8278 62.773C59.9835 68.1215 62.9865 75.183 63.2624 82.6067C63.2567 84.4606 63.0444 86.3081 62.6296 88.1151L96.143 54.6017C97.366 53.3784 98.0531 51.7193 98.0531 49.9894C98.0531 48.2596 97.366 46.6005 96.143 45.3772L51.375 0.613454C51.1579 0.407665 50.9016 0.247511 50.6215 0.142466C50.3414 0.0374208 50.0431 -0.0103833 49.7441 0.00188107ZM37.4235 11.8638L3.91018 45.3772C2.6871 46.6005 2 48.2596 2 49.9894C2 51.7193 2.6871 53.3784 3.91018 54.6017L48.6739 99.3739C49.0817 99.7816 49.6347 100.011 50.2113 100.011C50.7879 100.011 51.341 99.7816 51.7487 99.3739C56.0752 94.8318 58.6176 88.8812 58.9092 82.6151C58.6165 76.3493 56.0742 70.3992 51.7487 65.8564L35.8903 49.9894L46.9496 38.9259L45.2253 37.2016C40.0706 31.8546 37.069 24.7943 36.7949 17.3722C36.7992 15.5185 37.0101 13.6709 37.4235 11.8638Z" fill="white"/>
</g>
<defs>
<clipPath id="clip0_2_26">
<rect width="100" height="100" fill="white"/>
</clipPath>
</defs>
</svg>
