<svg width="365" height="1131" viewBox="0 0 365 1131" fill="none" xmlns="http://www.w3.org/2000/svg">
<path fill-rule="evenodd" clip-rule="evenodd" d="M365 0H0V1131H365V0ZM97.2587 1072.07H260.719V1030.93H192.959V974.831H260.719V933.911H97.2587V974.831H163.479V1030.93H97.2587V1072.07ZM252.689 883.732C259.509 872.292 262.772 858.506 262.479 842.372C262.185 827.486 259.105 814.359 253.239 802.992C247.372 791.626 238.315 782.679 226.069 776.152C213.822 769.626 198.019 766.179 178.659 765.812C161.425 765.519 146.502 768.306 133.889 774.172C121.275 779.966 111.632 788.399 104.959 799.472C98.2121 810.546 95.0587 823.819 95.4987 839.292C95.9387 854.399 99.0187 867.819 104.739 879.552C110.385 891.286 119.222 900.562 131.249 907.382C143.202 914.129 158.859 917.686 178.219 918.052C195.525 918.346 210.559 915.559 223.319 909.692C236.005 903.753 245.795 895.099 252.689 883.732ZM220.239 816.742C228.745 822.829 232.999 831.152 232.999 841.712C232.999 849.412 230.689 855.829 226.069 860.962C221.449 866.022 215.105 869.836 207.039 872.402C198.972 874.969 189.732 876.253 179.319 876.253C165.825 876.253 155.192 874.639 147.419 871.412C139.645 868.112 134.109 863.712 130.809 858.212C127.509 852.712 125.859 846.626 125.859 839.952C125.859 832.619 128.022 826.569 132.349 821.802C136.675 817.036 142.725 813.479 150.499 811.133C158.272 808.786 167.292 807.612 177.559 807.612C197.432 807.612 211.659 810.656 220.239 816.742ZM253.679 724.372C259.545 714.252 262.479 700.758 262.479 683.892C262.479 660.352 256.319 643.228 243.999 632.522C231.679 621.742 214.592 616.352 192.739 616.352H97.2587V656.832H187.239C198.385 656.832 207.075 657.858 213.309 659.912C219.542 661.965 223.905 665.045 226.399 669.152C228.892 673.258 230.139 678.392 230.139 684.552C230.139 690.638 228.965 695.772 226.619 699.952C224.199 704.058 219.909 707.175 213.749 709.302C207.515 711.355 198.679 712.345 187.239 712.272L97.2587 711.832L97.2587 752.532L192.079 752.972C206.159 752.972 218.479 750.735 229.039 746.262C239.599 741.788 247.812 734.492 253.679 724.372ZM260.719 571.377C261.892 564.264 262.479 556.82 262.479 549.047C262.479 536.214 260.499 525.36 256.539 516.487C252.505 507.614 246.859 500.904 239.599 496.357C232.339 491.737 223.832 489.427 214.079 489.427C207.625 489.427 201.942 490.454 197.029 492.507C192.042 494.487 187.605 497.421 183.719 501.307C179.832 505.194 176.239 509.924 172.939 515.497C169.639 520.997 166.412 527.267 163.259 534.307C160.252 540.907 157.539 546.297 155.119 550.477C152.625 554.584 150.132 557.627 147.639 559.607C145.072 561.514 142.139 562.467 138.839 562.467C136.125 562.467 133.742 561.661 131.689 560.047C129.635 558.434 128.059 555.977 126.959 552.677C125.785 549.377 125.199 545.161 125.199 540.027C125.199 532.841 126.299 525.837 128.499 519.017C130.625 512.124 132.972 507.027 135.539 503.727L104.959 497.347C103.199 500.28 101.182 505.634 98.9087 513.407C96.6354 521.18 95.4987 531.227 95.4987 543.547C95.4987 552.201 96.452 560.084 98.3587 567.197C100.192 574.31 102.979 580.471 106.719 585.677C110.459 590.81 115.152 594.807 120.799 597.667C126.372 600.454 132.899 601.847 140.379 601.847C149.105 601.847 156.659 600.087 163.039 596.567C169.345 593.047 174.772 588.391 179.319 582.597C183.792 576.804 187.679 570.461 190.979 563.567C194.865 555.427 198.092 548.937 200.659 544.097C203.225 539.184 205.755 535.664 208.249 533.537C210.669 531.41 213.639 530.347 217.159 530.347C221.999 530.347 225.519 532.107 227.719 535.627C229.919 539.074 231.019 544.647 231.019 552.347C231.019 558.067 230.469 563.75 229.369 569.397C228.195 574.971 226.802 580.067 225.189 584.687C223.575 589.307 221.999 592.974 220.459 595.687L252.359 600.747C253.679 598.62 255.145 594.954 256.759 589.747C258.299 584.54 259.619 578.417 260.719 571.377ZM97.2587 474.548H260.719V364.768L229.479 364.768V433.848H192.079L192.079 385.448H162.379V433.848H127.839V371.148H97.2587L97.2587 474.548ZM260.719 326.112C261.892 318.998 262.479 311.555 262.479 303.782C262.479 290.948 260.499 280.095 256.539 271.222C252.505 262.348 246.859 255.638 239.599 251.092C232.339 246.472 223.832 244.162 214.079 244.162C207.625 244.162 201.942 245.188 197.029 247.242C192.042 249.222 187.605 252.155 183.719 256.042C179.832 259.928 176.239 264.658 172.939 270.232C169.639 275.732 166.412 282.002 163.259 289.042C160.252 295.642 157.539 301.032 155.119 305.212C152.625 309.318 150.132 312.362 147.639 314.342C145.072 316.248 142.139 317.202 138.839 317.202C136.125 317.202 133.742 316.395 131.689 314.782C129.635 313.168 128.059 310.712 126.959 307.412C125.785 304.112 125.199 299.895 125.199 294.762C125.199 287.575 126.299 280.572 128.499 273.752C130.625 266.858 132.972 261.762 135.539 258.462L104.959 252.082C103.199 255.015 101.182 260.368 98.9087 268.142C96.6354 275.915 95.4987 285.962 95.4987 298.282C95.4987 306.935 96.452 314.818 98.3587 321.932C100.192 329.045 102.979 335.205 106.719 340.412C110.459 345.545 115.152 349.542 120.799 352.402C126.372 355.188 132.899 356.582 140.379 356.582C149.105 356.582 156.659 354.822 163.039 351.302C169.345 347.782 174.772 343.125 179.319 337.332C183.792 331.538 187.679 325.195 190.979 318.302C194.865 310.162 198.092 303.672 200.659 298.832C203.225 293.918 205.755 290.398 208.249 288.272C210.669 286.145 213.639 285.082 217.159 285.082C221.999 285.082 225.519 286.842 227.719 290.362C229.919 293.808 231.019 299.382 231.019 307.082C231.019 312.802 230.469 318.485 229.369 324.132C228.195 329.705 226.802 334.802 225.189 339.422C223.575 344.042 221.999 347.708 220.459 350.422L252.359 355.482C253.679 353.355 255.145 349.688 256.759 344.482C258.299 339.275 259.619 333.152 260.719 326.112Z" fill="url(#paint0_linear_47_28)" fill-opacity="0.45"/>
<defs>
<linearGradient id="paint0_linear_47_28" x1="-258.245" y1="997.686" x2="615.751" y2="-47.5008" gradientUnits="userSpaceOnUse">
<stop offset="0.220017" stop-color="#878787" stop-opacity="0.36"/>
<stop offset="0.572388" stop-color="#A6A6A6"/>
<stop offset="1" stop-color="#DC4238" stop-opacity="0.05"/>
<stop offset="1" stop-color="#B3B3B3" stop-opacity="0.55"/>
</linearGradient>
</defs>
</svg>
