<svg width="365" height="1185" viewBox="0 0 365 1185" fill="none" xmlns="http://www.w3.org/2000/svg">
<path fill-rule="evenodd" clip-rule="evenodd" d="M365 0H0V1185H365V0ZM240 1100.72C241.067 1094.26 241.6 1087.49 241.6 1080.42C241.6 1068.76 239.8 1058.89 236.2 1050.82C232.533 1042.76 227.4 1036.65 220.8 1032.52C214.2 1028.32 206.467 1026.22 197.6 1026.22C191.733 1026.22 186.567 1027.15 182.1 1029.02C177.567 1030.82 173.533 1033.49 170 1037.02C166.467 1040.55 163.2 1044.85 160.2 1049.92C157.2 1054.92 154.267 1060.62 151.4 1067.02C148.667 1073.02 146.2 1077.92 144 1081.72C141.733 1085.45 139.467 1088.22 137.2 1090.02C134.867 1091.76 132.2 1092.62 129.2 1092.62C126.733 1092.62 124.567 1091.89 122.7 1090.42C120.833 1088.95 119.4 1086.72 118.4 1083.72C117.333 1080.72 116.8 1076.89 116.8 1072.22C116.8 1065.69 117.8 1059.32 119.8 1053.12C121.733 1046.85 123.867 1042.22 126.2 1039.22L98.4 1033.42C96.8 1036.09 94.9667 1040.95 92.9 1048.02C90.8333 1055.09 89.8 1064.22 89.8 1075.42C89.8 1083.29 90.6667 1090.45 92.4 1096.92C94.0667 1103.39 96.6 1108.99 100 1113.72C103.4 1118.39 107.667 1122.02 112.8 1124.62C117.867 1127.15 123.8 1128.42 130.6 1128.42C138.533 1128.42 145.4 1126.82 151.2 1123.62C156.933 1120.42 161.867 1116.19 166 1110.92C170.067 1105.65 173.6 1099.89 176.6 1093.62C180.133 1086.22 183.067 1080.32 185.4 1075.92C187.733 1071.45 190.033 1068.26 192.3 1066.32C194.5 1064.39 197.2 1063.42 200.4 1063.42C204.8 1063.42 208 1065.02 210 1068.22C212 1071.35 213 1076.42 213 1083.42C213 1088.62 212.5 1093.79 211.5 1098.92C210.433 1103.99 209.167 1108.62 207.7 1112.82C206.233 1117.02 204.8 1120.35 203.4 1122.82L232.4 1127.42C233.6 1125.49 234.933 1122.15 236.4 1117.42C237.8 1112.69 239 1107.12 240 1100.72ZM91.4 1012.7H240L240 976.295H197.852L181.285 962.339C183.975 960.541 186.713 958.76 189.5 956.995C193.433 954.395 197.5 951.862 201.7 949.395C205.833 946.862 210.1 944.328 214.5 941.795C218.9 939.262 223.467 936.762 228.2 934.295C231.267 932.695 233.667 931.462 235.4 930.595C237.133 929.728 238.667 928.895 240 928.095V886.295L236.4 888.495C235.2 889.162 234 889.862 232.8 890.595C231.6 891.262 230.4 891.962 229.2 892.695C224 895.762 218.367 899.062 212.3 902.595C206.233 906.128 200.133 909.728 194 913.395C187.8 917.062 181.9 920.628 176.3 924.095C170.633 927.495 165.633 930.628 161.3 933.495C158.901 935.058 156.809 936.483 155.024 937.768L91.4 888.895L91.4 929.295L154.6 976.295H91.4V1012.7ZM91.4 878.117H240V840.517H91.4V878.117ZM232.7 792.884C238.9 782.484 241.867 769.951 241.6 755.284C241.333 741.751 238.533 729.817 233.2 719.484C227.867 709.151 219.633 701.017 208.5 695.084C197.367 689.151 183 686.017 165.4 685.684C149.733 685.417 136.167 687.951 124.7 693.284C113.233 698.551 104.467 706.217 98.4 716.284C92.2666 726.351 89.4 738.417 89.8 752.484C90.2 766.217 93 778.417 98.2 789.084C103.333 799.751 111.367 808.184 122.3 814.384C133.167 820.517 147.4 823.751 165 824.084C180.733 824.351 194.4 821.817 206 816.484C217.533 811.084 226.433 803.217 232.7 792.884ZM203.2 731.984C210.933 737.517 214.8 745.084 214.8 754.684C214.8 761.684 212.7 767.517 208.5 772.184C204.3 776.784 198.533 780.251 191.2 782.584C183.867 784.917 175.467 786.084 166 786.084C153.733 786.084 144.067 784.617 137 781.684C129.933 778.684 124.9 774.684 121.9 769.684C118.9 764.684 117.4 759.151 117.4 753.084C117.4 746.417 119.367 740.917 123.3 736.584C127.233 732.251 132.733 729.017 139.8 726.884C146.867 724.751 155.067 723.684 164.4 723.684C182.467 723.684 195.4 726.451 203.2 731.984ZM240 671.211V634.011H187.4C187.4 627.053 187.292 621.498 187.076 617.347C187.407 614.677 188.782 612.398 191.2 610.511C193.867 608.377 197.333 606.511 201.6 604.911C205.867 603.244 210.467 601.611 215.4 600.011C220.267 598.411 224.933 596.611 229.4 594.611C232.6 593.211 234.933 592.177 236.4 591.511C237.8 590.777 239 590.011 240 589.211V548.211C238.2 549.211 236.4 550.244 234.6 551.311C232.8 552.377 231 553.411 229.2 554.411C224.333 557.211 219.233 559.744 213.9 562.011C208.5 564.277 203.333 566.577 198.4 568.911C193.4 571.177 189 573.711 185.2 576.511C183.007 578.088 181.17 579.831 179.688 581.741C178.962 580.175 178.166 578.665 177.3 577.211C173.7 571.277 168.633 566.644 162.1 563.311C155.5 559.911 147.133 558.211 137 558.211C127.667 558.211 119.933 559.844 113.8 563.111C107.667 566.377 102.867 570.711 99.4 576.111C95.8666 581.511 93.4 587.477 92 594.011C90.5333 600.544 89.8 607.077 89.8 613.611C89.8 624.211 90.0666 633.011 90.6 640.011C91.1333 646.944 91.4 653.077 91.4 658.411V662.711V667.011V671.211H240ZM162.1 628.611C161.967 630.877 161.8 632.677 161.6 634.011H117.8C117.2 631.677 116.767 629.144 116.5 626.411C116.167 623.611 116 620.877 116 618.211C116 611.677 117.033 606.677 119.1 603.211C121.167 599.677 123.867 597.277 127.2 596.011C130.467 594.677 133.933 594.011 137.6 594.011C144.467 594.011 150.333 595.744 155.2 599.211C160 602.677 162.4 608.211 162.4 615.811V621.711C162.333 624.044 162.233 626.344 162.1 628.611ZM91.4 538.437H240V534.037V529.637V525.237C240 519.504 240.233 513.404 240.7 506.937C241.167 500.404 241.467 493.504 241.6 486.237C241.667 470.371 238.6 456.837 232.4 445.637C226.133 434.437 217.067 425.871 205.2 419.937C193.267 414.004 178.867 411.037 162 411.037C139.067 411.037 121.3 416.904 108.7 428.637C96.1 440.371 89.8 458.837 89.8 484.037C89.8 488.637 89.9333 493.637 90.2 499.037C90.4666 504.371 90.7333 509.371 91 514.037C91.2666 518.637 91.4 522.171 91.4 524.637V529.237V533.837V538.437ZM213.9 493.537C213.633 496.604 213.2 499.104 212.6 501.037L118 501.037C117.667 499.237 117.367 496.804 117.1 493.737C116.767 490.671 116.6 487.904 116.6 485.437C116.6 477.371 118.167 470.704 121.3 465.437C124.433 460.104 129.567 456.137 136.7 453.537C143.767 450.937 153.267 449.637 165.2 449.637C176.467 449.637 185.7 451.071 192.9 453.937C200.1 456.737 205.433 460.737 208.9 465.937C212.367 471.071 214.133 477.104 214.2 484.037C214.2 487.304 214.1 490.471 213.9 493.537ZM91.4 394.875H240L240 357.275H91.4V394.875ZM91.4 333.242H240V233.442H211.6V296.242H177.6V252.242L150.6 252.242V296.242H119.2V239.242H91.3999L91.4 333.242Z" fill="url(#paint0_linear_55_25)" fill-opacity="0.8"/>
<defs>
<linearGradient id="paint0_linear_55_25" x1="-258.245" y1="1045.32" x2="664.093" y2="-7.41417" gradientUnits="userSpaceOnUse">
<stop offset="0.220017" stop-color="#DE5531" stop-opacity="0.65"/>
<stop offset="0.572388" stop-color="#ED3327"/>
<stop offset="1" stop-color="#DC4238" stop-opacity="0.05"/>
<stop offset="1" stop-color="#DC4238" stop-opacity="0.65"/>
</linearGradient>
</defs>
</svg>
