<svg width="365" height="1131" viewBox="0 0 365 1131" fill="none" xmlns="http://www.w3.org/2000/svg">
<path fill-rule="evenodd" clip-rule="evenodd" d="M365 0H0V1131H365V0ZM97.2587 1072.07H260.719V1030.93H213.419C213.419 1029.17 213.455 1027.01 213.529 1024.44C213.602 1021.87 213.639 1018.46 213.639 1014.21C213.639 992.431 208.395 975.821 197.909 964.381C187.422 952.868 172.499 947.111 153.139 947.111C138.985 947.111 127.692 949.641 119.259 954.701C110.825 959.688 104.775 966.875 101.109 976.261C97.3687 985.648 95.4987 996.905 95.4987 1010.03C95.4987 1018.17 95.7921 1026.02 96.3787 1033.57C96.9654 1041.05 97.2587 1048.53 97.2587 1056.01V1072.07ZM183.939 1023.34C183.719 1026.05 183.499 1028.58 183.279 1030.93H125.199C124.832 1028.58 124.575 1025.98 124.429 1023.12C124.209 1020.26 124.099 1017.58 124.099 1015.09C123.732 1005.48 126.262 998.445 131.689 993.971C137.042 989.425 144.119 987.151 152.919 987.151C160.545 987.151 166.669 988.361 171.289 990.781C175.835 993.128 179.135 996.355 181.189 1000.46C183.169 1004.49 184.159 1009.08 184.159 1014.21C184.159 1017.58 184.085 1020.63 183.939 1023.34ZM260.719 934.399V893.479H202.859C202.859 885.826 202.74 879.716 202.503 875.149C202.867 872.212 204.379 869.706 207.039 867.63C209.972 865.283 213.785 863.229 218.479 861.469C223.172 859.636 228.232 857.839 233.659 856.08C239.012 854.32 244.145 852.339 249.059 850.14C252.579 848.599 255.145 847.463 256.759 846.729C258.299 845.923 259.619 845.08 260.719 844.2L260.719 799.099C258.739 800.199 256.759 801.336 254.779 802.51C252.799 803.683 250.819 804.82 248.839 805.919C243.485 809 237.875 811.786 232.009 814.279C226.069 816.773 220.385 819.303 214.959 821.87C209.459 824.363 204.619 827.149 200.439 830.229C198.027 831.964 196.006 833.882 194.375 835.983C193.577 834.26 192.701 832.599 191.749 831C187.789 824.473 182.215 819.376 175.029 815.709C167.769 811.969 158.565 810.099 147.419 810.099C137.152 810.099 128.645 811.896 121.899 815.49C115.152 819.083 109.872 823.849 106.059 829.789C102.172 835.729 99.4587 842.293 97.9187 849.479C96.3054 856.666 95.4987 863.853 95.4987 871.039C95.4987 882.7 95.7921 892.38 96.3787 900.08C96.9654 907.706 97.2587 914.453 97.2587 920.32V925.049V929.779V934.4L260.719 934.399ZM175.029 887.539C174.882 890.033 174.699 892.013 174.479 893.479H126.299C125.639 890.913 125.162 888.126 124.869 885.12C124.502 882.039 124.319 879.033 124.319 876.099C124.319 868.913 125.455 863.413 127.729 859.599C130.002 855.713 132.972 853.073 136.639 851.68C140.232 850.213 144.045 849.479 148.079 849.479C155.632 849.479 162.085 851.386 167.439 855.2C172.719 859.013 175.359 865.099 175.359 873.459V879.95C175.285 882.516 175.175 885.046 175.029 887.539ZM97.2587 786.149H260.719V744.789H97.2587V786.149ZM142.909 720.333C153.322 724.586 165.459 726.713 179.319 726.713C196.185 726.713 210.852 723.486 223.319 717.033C235.785 710.506 245.429 701.009 252.249 688.543C259.069 676.003 262.479 660.713 262.479 642.673C262.479 636.293 262.002 630.609 261.049 625.623C260.095 620.636 258.959 616.273 257.639 612.533C256.319 608.719 255.072 605.419 253.899 602.633H220.239C221.779 604.466 223.355 607.289 224.969 611.103C226.582 614.916 227.975 619.206 229.149 623.973C230.249 628.739 230.799 633.433 230.799 638.053C230.799 648.246 228.562 656.789 224.089 663.683C219.542 670.576 213.235 675.783 205.169 679.303C197.102 682.749 187.679 684.473 176.899 684.473C166.339 684.473 157.429 682.493 150.169 678.533C142.835 674.573 137.299 669.219 133.559 662.473C129.745 655.726 127.839 648.173 127.839 639.813C127.839 633.286 128.425 627.786 129.599 623.313C130.699 618.766 132.019 615.099 133.559 612.313C135.025 609.453 136.272 607.253 137.299 605.713L102.099 600.433C101.439 603.733 100.595 607.253 99.5687 610.993C98.5421 614.659 97.6254 619.059 96.8187 624.193C95.9387 629.253 95.4987 635.559 95.4987 643.113C95.4987 654.846 97.2587 665.773 100.779 675.893C104.299 686.013 109.579 694.886 116.619 702.513C123.659 710.139 132.422 716.079 142.909 720.333ZM97.2587 585.571H260.719V544.211H97.2587L97.2587 585.571ZM97.2587 517.775L260.719 517.774V480.595H190.099L148.282 485.667L173.159 473.775L260.719 420.754V379.615H97.2587V416.794H169.199L210.706 412.363L187.019 423.615L97.2587 479.495V517.775ZM141.039 357.266C151.745 361.592 164.652 363.756 179.759 363.756C197.139 363.756 212.025 360.492 224.419 353.966C236.739 347.366 246.162 338.089 252.689 326.136C259.215 314.182 262.479 300.102 262.479 283.896C262.479 274.582 261.929 266.772 260.829 260.466C259.802 254.159 258.592 248.842 257.199 244.516C255.732 240.189 254.449 236.376 253.349 233.076C252.175 229.776 251.552 226.549 251.479 223.396H168.979V284.116H198.239L199.931 260.796H228.599C229.552 263.436 230.359 266.626 231.019 270.366C231.605 274.106 231.899 278.836 231.899 284.556C231.899 292.696 229.515 299.552 224.749 305.126C219.982 310.699 213.455 314.952 205.169 317.886C196.882 320.746 187.459 322.176 176.899 322.176C166.632 322.176 157.832 320.416 150.499 316.896C143.092 313.376 137.445 308.316 133.559 301.716C129.599 295.042 127.619 286.976 127.619 277.516C127.619 266.589 128.499 257.569 130.259 250.456C132.019 243.269 133.999 237.549 136.199 233.296L101.879 232.196C101.145 236.376 100.302 240.556 99.3487 244.736C98.322 248.916 97.442 253.719 96.7087 259.146C95.902 264.572 95.4987 271.282 95.4987 279.276C95.4987 291.082 97.0754 302.119 100.229 312.386C103.309 322.579 108.222 331.526 114.969 339.226C121.642 346.926 130.332 352.939 141.039 357.266Z" fill="url(#paint0_linear_43_25)" fill-opacity="0.3"/>
<defs>
<linearGradient id="paint0_linear_43_25" x1="-258.245" y1="997.686" x2="615.751" y2="-47.5008" gradientUnits="userSpaceOnUse">
<stop offset="0.220017" stop-color="#878787" stop-opacity="0.36"/>
<stop offset="0.572388" stop-color="#868686"/>
<stop offset="1" stop-color="#DC4238" stop-opacity="0.05"/>
<stop offset="1" stop-color="#8A8A8A" stop-opacity="0.65"/>
</linearGradient>
</defs>
</svg>
