<svg width="365" height="1045" viewBox="0 0 365 1045" fill="none" xmlns="http://www.w3.org/2000/svg">
<path fill-rule="evenodd" clip-rule="evenodd" d="M365 0H0V1045H365V0ZM128.719 960.174H260.719V918.814H128.719V875.254H97.2587L97.2587 1003.73H128.719L128.719 960.174ZM260.719 865.507V824.587H202.859C202.859 816.933 202.74 810.823 202.503 806.257C202.867 803.32 204.379 800.813 207.039 798.737C209.972 796.39 213.785 794.337 218.479 792.577C223.172 790.744 228.232 788.947 233.659 787.187C239.012 785.427 244.145 783.447 249.059 781.247C252.579 779.707 255.145 778.57 256.759 777.837C258.299 777.03 259.619 776.187 260.719 775.307V739.036V730.207V696.136L230.139 687.53L230.139 630.651L260.719 621.556V578.216L96.1587 635.636L96.1587 682.056L251.154 735.724C250.382 736.164 249.61 736.598 248.839 737.027C243.485 740.107 237.875 742.894 232.009 745.387C226.069 747.88 220.385 750.41 214.959 752.977C209.459 755.47 204.619 758.257 200.439 761.337C198.027 763.072 196.006 764.99 194.375 767.091C193.577 765.368 192.701 763.706 191.749 762.107C187.789 755.58 182.215 750.484 175.029 746.817C167.769 743.077 158.565 741.207 147.419 741.207C137.152 741.207 128.645 743.004 121.899 746.597C115.152 750.19 109.872 754.957 106.059 760.897C102.172 766.837 99.4587 773.4 97.9187 780.587C96.3054 787.774 95.4987 794.96 95.4987 802.147C95.4987 813.807 95.792 823.487 96.3787 831.187C96.9654 838.814 97.2587 845.56 97.2587 851.427V856.157V860.887V865.507L260.719 865.507ZM201.539 639.156L150.499 654.336L129.159 659.616L150.499 665.116L201.539 679.481V639.156ZM175.029 818.647C174.882 821.14 174.699 823.12 174.479 824.587H126.299C125.639 822.02 125.162 819.234 124.869 816.227C124.502 813.147 124.319 810.14 124.319 807.207C124.319 800.02 125.455 794.52 127.729 790.707C130.002 786.82 132.972 784.18 136.639 782.787C140.232 781.32 144.045 780.587 148.079 780.587C155.632 780.587 162.085 782.494 167.439 786.307C172.719 790.12 175.359 796.207 175.359 804.567V811.057C175.285 813.624 175.175 816.154 175.029 818.647ZM97.2587 601.349L261.159 541.949L261.159 506.309L97.2587 447.349V490.909L179.759 515.329L211.659 523.469L179.759 531.609L97.2587 557.789V601.349ZM97.2587 441.964H260.719V332.184H229.479V401.264H192.079L192.079 352.864H162.379V401.264H127.839V338.564H97.2587L97.2587 441.964ZM97.2587 317.397H260.719V221.697H227.719V276.917L97.2587 276.918V317.397Z" fill="url(#paint0_linear_35_33)" fill-opacity="0.3"/>
<defs>
<linearGradient id="paint0_linear_35_33" x1="-258.245" y1="921.823" x2="535.685" y2="-105.75" gradientUnits="userSpaceOnUse">
<stop offset="0.220017" stop-color="#878787" stop-opacity="0.36"/>
<stop offset="0.572388" stop-color="#868686"/>
<stop offset="1" stop-color="#DC4238" stop-opacity="0.05"/>
<stop offset="1" stop-color="#8A8A8A" stop-opacity="0.65"/>
</linearGradient>
</defs>
</svg>
