<svg width="365" height="1102" viewBox="0 0 365 1102" fill="none" xmlns="http://www.w3.org/2000/svg">
<path fill-rule="evenodd" clip-rule="evenodd" d="M365 -83H0V1102H365V-83ZM260.719 1017.23C261.892 1010.11 262.479 1002.67 262.479 994.898C262.479 982.065 260.499 971.212 256.539 962.338C252.505 953.465 246.859 946.755 239.599 942.208C232.339 937.588 223.832 935.278 214.079 935.278C207.625 935.278 201.942 936.305 197.029 938.358C192.042 940.338 187.605 943.272 183.719 947.158C179.832 951.045 176.239 955.775 172.939 961.348C169.639 966.848 166.412 973.118 163.259 980.158C160.252 986.758 157.539 992.148 155.119 996.328C152.625 1000.43 150.132 1003.48 147.639 1005.46C145.072 1007.36 142.139 1008.32 138.839 1008.32C136.125 1008.32 133.742 1007.51 131.689 1005.9C129.635 1004.28 128.059 1001.83 126.959 998.528C125.785 995.228 125.199 991.012 125.199 985.878C125.199 978.692 126.299 971.688 128.499 964.868C130.625 957.975 132.972 952.878 135.539 949.578L104.959 943.198C103.199 946.132 101.182 951.485 98.9087 959.258C96.6354 967.032 95.4987 977.078 95.4987 989.398C95.4987 998.052 96.452 1005.93 98.3587 1013.05C100.192 1020.16 102.979 1026.32 106.719 1031.53C110.459 1036.66 115.152 1040.66 120.799 1043.52C126.372 1046.3 132.899 1047.7 140.379 1047.7C149.105 1047.7 156.659 1045.94 163.039 1042.42C169.345 1038.9 174.772 1034.24 179.319 1028.45C183.792 1022.65 187.679 1016.31 190.979 1009.42C194.865 1001.28 198.092 994.788 200.659 989.948C203.225 985.035 205.755 981.515 208.249 979.388C210.669 977.262 213.639 976.198 217.159 976.198C221.999 976.198 225.519 977.958 227.719 981.478C229.919 984.925 231.019 990.498 231.019 998.198C231.019 1003.92 230.469 1009.6 229.369 1015.25C228.195 1020.82 226.802 1025.92 225.189 1030.54C223.575 1035.16 221.999 1038.82 220.459 1041.54L252.359 1046.6C253.679 1044.47 255.145 1040.8 256.759 1035.6C258.299 1030.39 259.619 1024.27 260.719 1017.23ZM128.719 891.359H260.719V849.999H128.719V806.439H97.2587L97.2587 934.919H128.719V891.359ZM260.719 796.692V755.772H202.859C202.859 748.119 202.74 742.009 202.503 737.442C202.867 734.505 204.379 731.998 207.039 729.922C209.972 727.575 213.785 725.522 218.479 723.762C223.172 721.929 228.232 720.132 233.659 718.372C239.012 716.612 244.145 714.632 249.059 712.432C252.579 710.892 255.145 709.755 256.759 709.022C258.299 708.215 259.619 707.372 260.719 706.492V661.392C258.739 662.492 256.759 663.629 254.779 664.802C252.799 665.975 250.819 667.112 248.839 668.212C243.485 671.292 237.875 674.079 232.009 676.572C226.069 679.065 220.385 681.595 214.959 684.162C209.459 686.655 204.619 689.442 200.439 692.522C198.027 694.257 196.006 696.175 194.375 698.276C193.577 696.553 192.701 694.892 191.749 693.292C187.789 686.765 182.215 681.669 175.029 678.002C167.769 674.262 158.565 672.392 147.419 672.392C137.152 672.392 128.645 674.189 121.899 677.782C115.152 681.375 109.872 686.142 106.059 692.082C102.172 698.022 99.4587 704.585 97.9187 711.772C96.3054 718.959 95.4987 726.145 95.4987 733.332C95.4987 744.992 95.792 754.672 96.3787 762.372C96.9654 769.999 97.2587 776.745 97.2587 782.612V787.342V792.072V796.692L260.719 796.692ZM175.029 749.832C174.882 752.325 174.699 754.305 174.479 755.772H126.299C125.639 753.205 125.162 750.419 124.869 747.412C124.502 744.332 124.319 741.325 124.319 738.392C124.319 731.205 125.455 725.705 127.729 721.892C130.002 718.005 132.972 715.365 136.639 713.972C140.232 712.505 144.045 711.772 148.079 711.772C155.632 711.772 162.085 713.679 167.439 717.492C172.719 721.305 175.359 727.392 175.359 735.752V742.242C175.285 744.809 175.175 747.339 175.029 749.832ZM252.689 627.904C259.509 616.464 262.772 602.677 262.479 586.544C262.185 571.657 259.105 558.531 253.239 547.164C247.372 535.797 238.315 526.851 226.069 520.324C213.822 513.797 198.019 510.351 178.659 509.984C161.425 509.69 146.502 512.477 133.889 518.344C121.275 524.137 111.632 532.57 104.959 543.644C98.212 554.717 95.0587 567.991 95.4987 583.464C95.9387 598.571 99.0187 611.991 104.739 623.724C110.385 635.457 119.222 644.734 131.249 651.554C143.202 658.301 158.859 661.857 178.219 662.224C195.525 662.517 210.559 659.731 223.319 653.864C236.005 647.924 245.795 639.271 252.689 627.904ZM220.239 560.914C228.745 567.001 232.999 575.324 232.999 585.884C232.999 593.584 230.689 600.001 226.069 605.134C221.449 610.194 215.105 614.007 207.039 616.574C198.972 619.141 189.732 620.424 179.319 620.424C165.825 620.424 155.192 618.811 147.419 615.584C139.645 612.284 134.109 607.884 130.809 602.384C127.509 596.884 125.859 590.797 125.859 584.124C125.859 576.791 128.022 570.741 132.349 565.974C136.675 561.207 142.725 557.651 150.499 555.304C158.272 552.957 167.292 551.784 177.559 551.784C197.432 551.784 211.659 554.827 220.239 560.914ZM97.2587 494.063L260.719 494.063V454.023H214.356L196.132 438.671C199.091 436.694 202.103 434.735 205.169 432.793C209.495 429.933 213.969 427.146 218.589 424.433C223.135 421.646 227.829 418.86 232.669 416.073C237.509 413.286 242.532 410.536 247.739 407.823C251.112 406.063 253.752 404.706 255.659 403.753C257.565 402.8 259.252 401.883 260.719 401.003L260.719 355.023L256.759 357.443C255.439 358.176 254.119 358.946 252.799 359.753C251.479 360.486 250.159 361.256 248.839 362.063C243.119 365.436 236.922 369.066 230.249 372.953C223.575 376.84 216.865 380.8 210.119 384.833C203.299 388.866 196.809 392.79 190.649 396.603C184.415 400.343 178.915 403.79 174.149 406.943C171.509 408.663 169.208 410.229 167.245 411.644L97.2587 357.883V402.323L166.779 454.023H97.2587V494.063ZM97.2587 348.227H260.719V238.447L229.479 238.447V307.527H192.079L192.079 259.127H162.379V307.527H127.839V244.827H97.2587L97.2587 348.227Z" fill="url(#paint0_linear_1_12)" fill-opacity="0.8"/>
<defs>
<linearGradient id="paint0_linear_1_12" x1="-258.245" y1="962.321" x2="664.093" y2="-90.4142" gradientUnits="userSpaceOnUse">
<stop offset="0.220017" stop-color="#DE5531" stop-opacity="0.65"/>
<stop offset="0.572388" stop-color="#ED3327"/>
<stop offset="1" stop-color="#DC4238" stop-opacity="0.05"/>
<stop offset="1" stop-color="#DC4238" stop-opacity="0.65"/>
</linearGradient>
</defs>
</svg>
